# 3ds Max Wavefront OBJ Exporter v0.99 - (c)2007 guruware
# File Created: 06.03.2026 11:16:01

#
# object Pyramid001
#

v  -0.8489 2.7963 -2.3003
v  -1.6730 0.0000 -1.5890
v  -0.0249 0.0000 -1.5890
v  -0.0249 0.0000 -3.0115
v  -1.6730 0.0000 -3.0115
v  -0.8489 0.0000 -2.3003
# 6 vertices

vn 0.0000 1.0000 -0.0000
vn -0.6412 -0.4397 0.6289
vn 0.6412 -0.4397 0.6289
vn 0.6412 -0.4397 -0.6289
vn -0.6412 -0.4397 -0.6289
vn 0.0000 -1.0000 -0.0000
# 6 vertex normals

vt 0.5000 1.0000 0.0000
vt 0.0000 0.0000 0.0000
vt 1.0000 0.0000 0.0000
vt 0.0000 1.0000 0.0000
vt 0.5000 0.5000 0.0000
vt 1.0000 1.0000 0.0000
# 6 texture coords

o Pyramid001
g Pyramid001
s 4
f 1/1/1 2/2/2 3/3/3 
s 2
f 1/1/1 3/2/3 4/3/4 
s 16
f 1/1/1 4/2/4 5/3/5 
s 32
f 1/1/1 5/2/5 2/3/2 
s 8
f 2/4/2 6/5/6 3/6/3 
f 3/6/3 6/5/6 4/3/4 
f 4/3/4 6/5/6 5/2/5 
f 5/2/5 6/5/6 2/4/2 
# 0 polygons - 8 triangles

